<?xml version="1.0" encoding="UTF-8"?>
<svg width="800px" height="500px" viewBox="0 0 800 500" version="1.1" xmlns="http://www.w3.org/2000/svg" xmlns:xlink="http://www.w3.org/1999/xlink">
    <g stroke="none" stroke-width="1" fill="none" fill-rule="evenodd">
        <rect fill="#F8FAFC" x="0" y="0" width="800" height="500"></rect>
        
        <!-- Header -->
        <rect fill="#F1F5F9" x="40" y="30" width="720" height="60" rx="8"></rect>
        <circle fill="#4F46E5" cx="80" cy="60" r="15"></circle>
        <rect fill="#CBD5E1" x="120" y="50" width="80" height="20" rx="4"></rect>
        <rect fill="#CBD5E1" x="220" y="50" width="80" height="20" rx="4"></rect>
        <rect fill="#CBD5E1" x="320" y="50" width="80" height="20" rx="4"></rect>
        <rect fill="#4F46E5" x="640" y="45" width="80" height="30" rx="6"></rect>
        
        <!-- Chart Area -->
        <rect fill="#FFFFFF" x="40" y="110" width="720" height="360" rx="8"></rect>
        
        <!-- Line Chart -->
        <rect fill="#EEF2FF" x="60" y="140" width="320" height="180" rx="6"></rect>
        <path d="M80,270 L140,240 L200,260 L260,210 L320,230 L380,190" stroke="#4F46E5" stroke-width="3"></path>
        <circle fill="#4F46E5" cx="140" cy="240" r="6"></circle>
        <circle fill="#4F46E5" cx="200" cy="260" r="6"></circle>
        <circle fill="#4F46E5" cx="260" cy="210" r="6"></circle>
        <circle fill="#4F46E5" cx="320" cy="230" r="6"></circle>
        
        <!-- Bar Chart -->
        <rect fill="#ECFDF5" x="400" y="140" width="340" height="180" rx="6"></rect>
        <rect fill="#10B981" x="430" y="250" width="40" height="50" rx="4"></rect>
        <rect fill="#10B981" x="490" y="220" width="40" height="80" rx="4"></rect>
        <rect fill="#10B981" x="550" y="180" width="40" height="120" rx="4"></rect>
        <rect fill="#10B981" x="610" y="200" width="40" height="100" rx="4"></rect>
        <rect fill="#10B981" x="670" y="160" width="40" height="140" rx="4"></rect>
        
        <!-- Metrics -->
        <rect fill="#F0F9FF" x="60" y="340" width="160" height="110" rx="6"></rect>
        <circle fill="#0EA5E9" cx="100" cy="375" r="20"></circle>
        <rect fill="#E0F2FE" x="140" y="365" width="60" height="20" rx="4"></rect>
        <rect fill="#E0F2FE" x="80" y="410" width="120" height="20" rx="4"></rect>
        
        <rect fill="#FEF2F2" x="240" y="340" width="160" height="110" rx="6"></rect>
        <circle fill="#EF4444" cx="280" cy="375" r="20"></circle>
        <rect fill="#FEE2E2" x="320" y="365" width="60" height="20" rx="4"></rect>
        <rect fill="#FEE2E2" x="260" y="410" width="120" height="20" rx="4"></rect>
        
        <rect fill="#F0FDF4" x="420" y="340" width="160" height="110" rx="6"></rect>
        <circle fill="#10B981" cx="460" cy="375" r="20"></circle>
        <rect fill="#DCFCE7" x="500" y="365" width="60" height="20" rx="4"></rect>
        <rect fill="#DCFCE7" x="440" y="410" width="120" height="20" rx="4"></rect>
        
        <rect fill="#FFF7ED" x="600" y="340" width="160" height="110" rx="6"></rect>
        <circle fill="#F97316" cx="640" cy="375" r="20"></circle>
        <rect fill="#FFEDD5" x="680" y="365" width="60" height="20" rx="4"></rect>
        <rect fill="#FFEDD5" x="620" y="410" width="120" height="20" rx="4"></rect>
    </g>
</svg>