<?xml version="1.0" encoding="UTF-8"?>
<svg width="800px" height="500px" viewBox="0 0 800 500" version="1.1" xmlns="http://www.w3.org/2000/svg" xmlns:xlink="http://www.w3.org/1999/xlink">
    <defs>
        <linearGradient x1="0%" y1="0%" x2="100%" y2="100%" id="contactGradient">
            <stop stop-color="#93C5FD" offset="0%"></stop>
            <stop stop-color="#3B82F6" offset="100%"></stop>
        </linearGradient>
        <filter x="-10%" y="-10%" width="120%" height="120%" filterUnits="objectBoundingBox" id="contactShadow">
            <feOffset dx="0" dy="4" in="SourceAlpha" result="shadowOffsetOuter1"></feOffset>
            <feGaussianBlur stdDeviation="6" in="shadowOffsetOuter1" result="shadowBlurOuter1"></feGaussianBlur>
            <feColorMatrix values="0 0 0 0 0   0 0 0 0 0   0 0 0 0 0  0 0 0 0.15 0" type="matrix" in="shadowBlurOuter1" result="shadowMatrixOuter1"></feColorMatrix>
            <feMerge>
                <feMergeNode in="shadowMatrixOuter1"></feMergeNode>
                <feMergeNode in="SourceGraphic"></feMergeNode>
            </feMerge>
        </filter>
    </defs>
    <g stroke="none" stroke-width="1" fill="none" fill-rule="evenodd">
        <rect fill="#F8FAFC" x="0" y="0" width="800" height="500"></rect>
        
        <!-- Main Contact Card -->
        <rect fill="#FFFFFF" x="100" y="100" width="600" height="300" rx="16" filter="url(#contactShadow)"></rect>
        
        <!-- Left Side Decoration -->
        <rect fill="url(#contactGradient)" x="100" y="100" width="16" height="300" rx="8 0 0 8"></rect>
        
        <!-- Contact Form Elements -->
        <rect fill="#F1F5F9" x="150" y="150" width="240" height="50" rx="8"></rect>
        <rect fill="#CBD5E1" x="170" y="165" width="80" height="6" rx="1"></rect>
        <rect fill="#E2E8F0" x="170" y="180" width="200" height="3" rx="1"></rect>
        
        <rect fill="#F1F5F9" x="150" y="220" width="240" height="50" rx="8"></rect>
        <rect fill="#CBD5E1" x="170" y="235" width="80" height="6" rx="1"></rect>
        <rect fill="#E2E8F0" x="170" y="250" width="200" height="3" rx="1"></rect>
        
        <rect fill="#F1F5F9" x="150" y="290" width="500" height="60" rx="8"></rect>
        <rect fill="#CBD5E1" x="170" y="305" width="80" height="6" rx="1"></rect>
        <rect fill="#E2E8F0" x="170" y="320" width="460" height="3" rx="1"></rect>
        <rect fill="#E2E8F0" x="170" y="330" width="460" height="3" rx="1"></rect>
        
        <rect fill="#3B82F6" x="450" y="150" width="200" height="50" rx="8"></rect>
        <rect fill="#FFFFFF" x="500" y="170" width="100" height="10" rx="2"></rect>
        
        <rect fill="#F1F5F9" x="450" y="220" width="200" height="50" rx="8"></rect>
        <rect fill="#CBD5E1" x="470" y="235" width="80" height="6" rx="1"></rect>
        <rect fill="#E2E8F0" x="470" y="250" width="160" height="3" rx="1"></rect>
        
        <!-- Contact Icons -->
        <circle fill="#DBEAFE" cx="620" cy="380" r="25"></circle>
        <rect fill="#3B82F6" x="610" y="370" width="20" height="20" rx="4"></rect>
        
        <circle fill="#DBEAFE" cx="550" cy="380" r="25"></circle>
        <circle fill="#3B82F6" cx="550" cy="380" r="10"></circle>
        
        <circle fill="#DBEAFE" cx="480" cy="380" r="25"></circle>
        <path d="M470,380 L490,380 M480,370 L480,390" stroke="#3B82F6" stroke-width="3" stroke-linecap="round"></path>
        
        <!-- Decorative Elements -->
        <circle fill="#BFDBFE" cx="400" cy="50" r="20" opacity="0.6"></circle>
        <circle fill="#BFDBFE" cx="450" cy="70" r="12" opacity="0.4"></circle>
        <circle fill="#BFDBFE" cx="380" cy="85" r="8" opacity="0.3"></circle>
        
        <circle fill="#BFDBFE" cx="700" cy="450" r="20" opacity="0.6"></circle>
        <circle fill="#BFDBFE" cx="750" cy="430" r="12" opacity="0.4"></circle>
        <circle fill="#BFDBFE" cx="680" cy="415" r="8" opacity="0.3"></circle>
        
        <circle fill="#BFDBFE" cx="100" cy="450" r="20" opacity="0.6"></circle>
        <circle fill="#BFDBFE" cx="50" cy="430" r="12" opacity="0.4"></circle>
        <circle fill="#BFDBFE" cx="120" cy="415" r="8" opacity="0.3"></circle>
        
        <!-- Envelope Icon -->
        <g transform="translate(730, 150)">
            <rect fill="#DBEAFE" x="0" y="0" width="50" height="40" rx="6"></rect>
            <path d="M0,6 L25,25 L50,6" stroke="#3B82F6" stroke-width="2" fill="none"></path>
            <path d="M0,40 L20,20 M50,40 L30,20" stroke="#3B82F6" stroke-width="2" fill="none"></path>
        </g>
        
        <!-- Phone Icon -->
        <g transform="translate(20, 150)">
            <rect fill="#DBEAFE" x="0" y="0" width="40" height="70" rx="8"></rect>
            <rect fill="#3B82F6" x="5" y="5" width="30" height="50" rx="4"></rect>
            <circle fill="#DBEAFE" cx="20" cy="65" r="5"></circle>
        </g>
    </g>
</svg>