<?xml version="1.0" encoding="UTF-8"?>
<svg width="800px" height="500px" viewBox="0 0 800 500" version="1.1" xmlns="http://www.w3.org/2000/svg" xmlns:xlink="http://www.w3.org/1999/xlink">
    <defs>
        <linearGradient x1="0%" y1="0%" x2="100%" y2="100%" id="lightBlueGradient">
            <stop stop-color="#DBEAFE" offset="0%"></stop>
            <stop stop-color="#BFDBFE" offset="100%"></stop>
        </linearGradient>
        <linearGradient x1="0%" y1="0%" x2="100%" y2="100%" id="lightPurpleGradient">
            <stop stop-color="#EDE9FE" offset="0%"></stop>
            <stop stop-color="#DDD6FE" offset="100%"></stop>
        </linearGradient>
        <linearGradient x1="0%" y1="0%" x2="100%" y2="100%" id="lightGreenGradient">
            <stop stop-color="#DCFCE7" offset="0%"></stop>
            <stop stop-color="#A7F3D0" offset="100%"></stop>
        </linearGradient>
        <filter x="-8.9%" y="-22.7%" width="117.9%" height="145.5%" filterUnits="objectBoundingBox" id="shadow">
            <feOffset dx="0" dy="4" in="SourceAlpha" result="shadowOffsetOuter1"></feOffset>
            <feGaussianBlur stdDeviation="8" in="shadowOffsetOuter1" result="shadowBlurOuter1"></feGaussianBlur>
            <feColorMatrix values="0 0 0 0 0   0 0 0 0 0   0 0 0 0 0  0 0 0 0.1 0" type="matrix" in="shadowBlurOuter1" result="shadowMatrixOuter1"></feColorMatrix>
            <feMerge>
                <feMergeNode in="shadowMatrixOuter1"></feMergeNode>
                <feMergeNode in="SourceGraphic"></feMergeNode>
            </feMerge>
        </filter>
    </defs>
    <g stroke="none" stroke-width="1" fill="none" fill-rule="evenodd">
        <rect fill="#F8FAFC" x="0" y="0" width="800" height="500"></rect>
        
        <!-- Testimonial Card 1 -->
        <g filter="url(#shadow)" transform="translate(60, 60)">
            <rect fill="url(#lightBlueGradient)" x="0" y="0" width="300" height="180" rx="12"></rect>
            <rect fill="#FFFFFF" x="20" y="20" width="260" height="140" rx="8"></rect>
            
            <!-- Quote Icon -->
            <rect fill="#3B82F6" x="40" y="40" width="30" height="30" rx="4"></rect>
            <path d="M50,50 L55,45 L60,50 L55,55 Z" fill="#FFFFFF"></path>
            
            <!-- Text Lines -->
            <rect fill="#E2E8F0" x="80" y="45" width="180" height="8" rx="2"></rect>
            <rect fill="#E2E8F0" x="40" y="65" width="220" height="8" rx="2"></rect>
            <rect fill="#E2E8F0" x="40" y="85" width="220" height="8" rx="2"></rect>
            <rect fill="#E2E8F0" x="40" y="105" width="150" height="8" rx="2"></rect>
            
            <!-- Avatar & Name -->
            <circle fill="#BFDBFE" cx="50" cy="130" r="10"></circle>
            <rect fill="#64748B" x="70" y="125" width="80" height="6" rx="2"></rect>
            <rect fill="#94A3B8" x="70" y="135" width="60" height="5" rx="1"></rect>
            
            <!-- Rating Stars -->
            <circle fill="#FACC15" cx="200" cy="130" r="5"></circle>
            <circle fill="#FACC15" cx="215" cy="130" r="5"></circle>
            <circle fill="#FACC15" cx="230" cy="130" r="5"></circle>
            <circle fill="#FACC15" cx="245" cy="130" r="5"></circle>
            <circle fill="#E2E8F0" cx="260" cy="130" r="5"></circle>
        </g>
        
        <!-- Testimonial Card 2 -->
        <g filter="url(#shadow)" transform="translate(250, 160)">
            <rect fill="url(#lightPurpleGradient)" x="0" y="0" width="300" height="180" rx="12"></rect>
            <rect fill="#FFFFFF" x="20" y="20" width="260" height="140" rx="8"></rect>
            
            <!-- Quote Icon -->
            <rect fill="#8B5CF6" x="40" y="40" width="30" height="30" rx="4"></rect>
            <path d="M50,50 L55,45 L60,50 L55,55 Z" fill="#FFFFFF"></path>
            
            <!-- Text Lines -->
            <rect fill="#E2E8F0" x="80" y="45" width="180" height="8" rx="2"></rect>
            <rect fill="#E2E8F0" x="40" y="65" width="220" height="8" rx="2"></rect>
            <rect fill="#E2E8F0" x="40" y="85" width="220" height="8" rx="2"></rect>
            <rect fill="#E2E8F0" x="40" y="105" width="150" height="8" rx="2"></rect>
            
            <!-- Avatar & Name -->
            <circle fill="#DDD6FE" cx="50" cy="130" r="10"></circle>
            <rect fill="#64748B" x="70" y="125" width="80" height="6" rx="2"></rect>
            <rect fill="#94A3B8" x="70" y="135" width="60" height="5" rx="1"></rect>
            
            <!-- Rating Stars -->
            <circle fill="#FACC15" cx="200" cy="130" r="5"></circle>
            <circle fill="#FACC15" cx="215" cy="130" r="5"></circle>
            <circle fill="#FACC15" cx="230" cy="130" r="5"></circle>
            <circle fill="#FACC15" cx="245" cy="130" r="5"></circle>
            <circle fill="#FACC15" cx="260" cy="130" r="5"></circle>
        </g>
        
        <!-- Testimonial Card 3 -->
        <g filter="url(#shadow)" transform="translate(440, 260)">
            <rect fill="url(#lightGreenGradient)" x="0" y="0" width="300" height="180" rx="12"></rect>
            <rect fill="#FFFFFF" x="20" y="20" width="260" height="140" rx="8"></rect>
            
            <!-- Quote Icon -->
            <rect fill="#10B981" x="40" y="40" width="30" height="30" rx="4"></rect>
            <path d="M50,50 L55,45 L60,50 L55,55 Z" fill="#FFFFFF"></path>
            
            <!-- Text Lines -->
            <rect fill="#E2E8F0" x="80" y="45" width="180" height="8" rx="2"></rect>
            <rect fill="#E2E8F0" x="40" y="65" width="220" height="8" rx="2"></rect>
            <rect fill="#E2E8F0" x="40" y="85" width="220" height="8" rx="2"></rect>
            <rect fill="#E2E8F0" x="40" y="105" width="150" height="8" rx="2"></rect>
            
            <!-- Avatar & Name -->
            <circle fill="#A7F3D0" cx="50" cy="130" r="10"></circle>
            <rect fill="#64748B" x="70" y="125" width="80" height="6" rx="2"></rect>
            <rect fill="#94A3B8" x="70" y="135" width="60" height="5" rx="1"></rect>
            
            <!-- Rating Stars -->
            <circle fill="#FACC15" cx="200" cy="130" r="5"></circle>
            <circle fill="#FACC15" cx="215" cy="130" r="5"></circle>
            <circle fill="#FACC15" cx="230" cy="130" r="5"></circle>
            <circle fill="#FACC15" cx="245" cy="130" r="5"></circle>
            <circle fill="#FACC15" cx="260" cy="130" r="5"></circle>
        </g>
        
        <!-- Floating Elements -->
        <circle fill="#BFDBFE" cx="100" cy="300" r="25" opacity="0.4"></circle>
        <circle fill="#BFDBFE" cx="150" cy="340" r="15" opacity="0.3"></circle>
        <circle fill="#BFDBFE" cx="80" cy="370" r="10" opacity="0.2"></circle>
        
        <circle fill="#DDD6FE" cx="400" cy="80" r="25" opacity="0.4"></circle>
        <circle fill="#DDD6FE" cx="450" cy="120" r="15" opacity="0.3"></circle>
        <circle fill="#DDD6FE" cx="380" cy="150" r="10" opacity="0.2"></circle>
        
        <circle fill="#A7F3D0" cx="650" cy="400" r="25" opacity="0.4"></circle>
        <circle fill="#A7F3D0" cx="700" cy="440" r="15" opacity="0.3"></circle>
        <circle fill="#A7F3D0" cx="630" cy="470" r="10" opacity="0.2"></circle>
        
        <!-- Statistics -->
        <rect fill="#FFFFFF" x="600" y="80" width="140" height="80" rx="8" filter="url(#shadow)"></rect>
        <rect fill="#F1F5F9" x="620" y="100" width="100" height="40" rx="4"></rect>
        <text font-family="Arial" font-size="24" font-weight="bold" fill="#3B82F6" x="650" y="130">96%</text>
        <rect fill="#64748B" x="640" y="140" width="60" height="5" rx="1"></rect>
    </g>
</svg>